# xmcd
# 
# Track frame offsets:
#     150
#     11968
#     24747
#     37080
#     49518
#     64240
#     77061
#     88830
#     100174
#     115447
#     125063
#     134887
#     150515
#     160379
#     175359
#     184369
#     196848
#     208338
#     218909
#     231688
#     249099
# 
# Disc length: 3456
# 
# Revision: 0
# Processed by: cddbd v1.5.2PL0 Copyright (c) Steve Scherf et al.
# Submitted via: fre:ac v1.0.17
# 
DISCID=420d7e15
DTITLE=Charley Pride - Just An Old Love Turned Memory/Someone Loves You Honey
DYEAR=2015
DGENRE=Country
TTITLE0=Shes Just An Old Love
TTITLE1=Rhinestone Cowboy
TTITLE2=The Hunger
TTITLE3=A Whole Lotta Things
TTITLE4=I Feel The Country Calling
TTITLE5=I'll Be Leaving Alone
TTITLE6=We Need Lovin
TTITLE7=Country Music
TTITLE8=The Rose Is For Today
TTITLE9=Get Up Off Your Good
TTITLE10=Someone Loves You Honey
TTITLE11=Georgia Keeps On Pulling On My Ring
TTITLE12=I Live You
TTITLE13=Play Guitar Play
TTITLE14=Another I Love You Kind Of Day
TTITLE15=More To Me
TTITLE16=Days Of Our Lives
TTITLE17=Daydreams About Night Things
TTITLE18=Heaven Watches Over
TTITLE19=The Days Of Sand
TTITLE20=Im Never Leaving You
EXTD=
EXTT0=
EXTT1=
EXTT2=
EXTT3=
EXTT4=
EXTT5=
EXTT6=
EXTT7=
EXTT8=
EXTT9=
EXTT10=
EXTT11=
EXTT12=
EXTT13=
EXTT14=
EXTT15=
EXTT16=
EXTT17=
EXTT18=
EXTT19=
EXTT20=
PLAYORDER=
